<svg viewBox="0 0 250 350" xmlns="http://www.w3.org/2000/svg">
    <rect x="1.5" y="1.5" width="247" height="347" rx="14" fill="#F6F3EC" stroke="#D8D2C4" stroke-width="1.5"/>
    <rect x="13" y="13" width="224" height="324" rx="7" fill="none" stroke="#8A6B2F" stroke-width="1.5" opacity="0.85"/>
  <rect x="18" y="18" width="214" height="314" rx="5" fill="none" stroke="#8A6B2F" stroke-width="0.7" opacity="0.55"/><g transform="translate(250 0) scale(-1 1)"><g stroke="#8A6B2F" stroke-width="1.3" fill="none" stroke-linecap="round" color="#8A6B2F">
    <path d="M24 40 A9 9 0 0 1 33 31 A6.12 6.12 0 0 1 39.12 37.12 A4.16 4.16 0 0 1 34.96 41.28 A2.83 2.83 0 0 1 32.13 38.45 A1.92 1.92 0 0 1 34.05 36.53 A1.31 1.31 0 0 1 35.36 37.84"/>
    <path d="M40 24 A9 9 0 0 0 31 33 A6.12 6.12 0 0 0 37.12 39.12 A4.16 4.16 0 0 0 41.28 34.96 A2.83 2.83 0 0 0 38.45 32.13 A1.92 1.92 0 0 0 36.53 34.05 A1.31 1.31 0 0 0 37.84 35.36"/>
    <path d="M30 30 Q32.05 36.86 39.9 39.9 Q36.86 32.05 30 30 Z" fill="#8A6B2F" stroke="none" opacity="0.8"/>
    <circle cx="23" cy="23" r="1.5" fill="currentColor" stroke="none"/>
  </g></g>
    <g transform="translate(0 350) scale(1 -1)"><g stroke="#8A6B2F" stroke-width="1.3" fill="none" stroke-linecap="round" color="#8A6B2F">
    <path d="M24 40 A9 9 0 0 1 33 31 A6.12 6.12 0 0 1 39.12 37.12 A4.16 4.16 0 0 1 34.96 41.28 A2.83 2.83 0 0 1 32.13 38.45 A1.92 1.92 0 0 1 34.05 36.53 A1.31 1.31 0 0 1 35.36 37.84"/>
    <path d="M40 24 A9 9 0 0 0 31 33 A6.12 6.12 0 0 0 37.12 39.12 A4.16 4.16 0 0 0 41.28 34.96 A2.83 2.83 0 0 0 38.45 32.13 A1.92 1.92 0 0 0 36.53 34.05 A1.31 1.31 0 0 0 37.84 35.36"/>
    <path d="M30 30 Q32.05 36.86 39.9 39.9 Q36.86 32.05 30 30 Z" fill="#8A6B2F" stroke="none" opacity="0.8"/>
    <circle cx="23" cy="23" r="1.5" fill="currentColor" stroke="none"/>
  </g></g><g>
    <text x="30" y="46" text-anchor="middle" font-family="Iosevka Etoile,ui-monospace,Menlo,monospace" font-size="24" font-weight="700" fill="#23262B">9</text>
    <path d="M3.78 -4.5 A3.78 3.78 0 1 0 -3.78 -4.5 A3.78 3.78 0 1 0 3.78 -4.5 ZM-0.36 1.26 A3.78 3.78 0 1 0 -7.92 1.26 A3.78 3.78 0 1 0 -0.36 1.26 ZM7.92 1.26 A3.78 3.78 0 1 0 0.36 1.26 A3.78 3.78 0 1 0 7.92 1.26 ZM-1.2600000000000002 0.9 C-0.9 4.95 -1.98 6.75 -3.6 8.549999999999999 L3.6 8.549999999999999 C1.98 6.75 0.9 4.95 1.2600000000000002 0.9 Z" transform="translate(30 62)" fill="#23262B" stroke="none"/>
  </g><g transform="translate(250 350) scale(-1 -1)"><g>
    <text x="30" y="46" text-anchor="middle" font-family="Iosevka Etoile,ui-monospace,Menlo,monospace" font-size="24" font-weight="700" fill="#23262B">9</text>
    <path d="M3.78 -4.5 A3.78 3.78 0 1 0 -3.78 -4.5 A3.78 3.78 0 1 0 3.78 -4.5 ZM-0.36 1.26 A3.78 3.78 0 1 0 -7.92 1.26 A3.78 3.78 0 1 0 -0.36 1.26 ZM7.92 1.26 A3.78 3.78 0 1 0 0.36 1.26 A3.78 3.78 0 1 0 7.92 1.26 ZM-1.2600000000000002 0.9 C-0.9 4.95 -1.98 6.75 -3.6 8.549999999999999 L3.6 8.549999999999999 C1.98 6.75 0.9 4.95 1.2600000000000002 0.9 Z" transform="translate(30 62)" fill="#23262B" stroke="none"/>
  </g></g><g transform="translate(73 83)"><path d="M7.14 -8.5 A7.14 7.14 0 1 0 -7.14 -8.5 A7.14 7.14 0 1 0 7.14 -8.5 ZM-0.68 2.38 A7.14 7.14 0 1 0 -14.96 2.38 A7.14 7.14 0 1 0 -0.68 2.38 ZM14.96 2.38 A7.14 7.14 0 1 0 0.68 2.38 A7.14 7.14 0 1 0 14.96 2.38 ZM-2.3800000000000003 1.7000000000000002 C-1.7000000000000002 9.350000000000001 -3.74 12.75 -6.800000000000001 16.15 L6.800000000000001 16.15 C3.74 12.75 1.7000000000000002 9.350000000000001 2.3800000000000003 1.7000000000000002 Z" transform="translate(0 0)" fill="#23262B" stroke="none"/></g><g transform="translate(177 83)"><path d="M7.14 -8.5 A7.14 7.14 0 1 0 -7.14 -8.5 A7.14 7.14 0 1 0 7.14 -8.5 ZM-0.68 2.38 A7.14 7.14 0 1 0 -14.96 2.38 A7.14 7.14 0 1 0 -0.68 2.38 ZM14.96 2.38 A7.14 7.14 0 1 0 0.68 2.38 A7.14 7.14 0 1 0 14.96 2.38 ZM-2.3800000000000003 1.7000000000000002 C-1.7000000000000002 9.350000000000001 -3.74 12.75 -6.800000000000001 16.15 L6.800000000000001 16.15 C3.74 12.75 1.7000000000000002 9.350000000000001 2.3800000000000003 1.7000000000000002 Z" transform="translate(0 0)" fill="#23262B" stroke="none"/></g><g transform="translate(73 144.64)"><path d="M7.14 -8.5 A7.14 7.14 0 1 0 -7.14 -8.5 A7.14 7.14 0 1 0 7.14 -8.5 ZM-0.68 2.38 A7.14 7.14 0 1 0 -14.96 2.38 A7.14 7.14 0 1 0 -0.68 2.38 ZM14.96 2.38 A7.14 7.14 0 1 0 0.68 2.38 A7.14 7.14 0 1 0 14.96 2.38 ZM-2.3800000000000003 1.7000000000000002 C-1.7000000000000002 9.350000000000001 -3.74 12.75 -6.800000000000001 16.15 L6.800000000000001 16.15 C3.74 12.75 1.7000000000000002 9.350000000000001 2.3800000000000003 1.7000000000000002 Z" transform="translate(0 0)" fill="#23262B" stroke="none"/></g><g transform="translate(177 144.64)"><path d="M7.14 -8.5 A7.14 7.14 0 1 0 -7.14 -8.5 A7.14 7.14 0 1 0 7.14 -8.5 ZM-0.68 2.38 A7.14 7.14 0 1 0 -14.96 2.38 A7.14 7.14 0 1 0 -0.68 2.38 ZM14.96 2.38 A7.14 7.14 0 1 0 0.68 2.38 A7.14 7.14 0 1 0 14.96 2.38 ZM-2.3800000000000003 1.7000000000000002 C-1.7000000000000002 9.350000000000001 -3.74 12.75 -6.800000000000001 16.15 L6.800000000000001 16.15 C3.74 12.75 1.7000000000000002 9.350000000000001 2.3800000000000003 1.7000000000000002 Z" transform="translate(0 0)" fill="#23262B" stroke="none"/></g><g transform="translate(125 175)"><path d="M7.14 -8.5 A7.14 7.14 0 1 0 -7.14 -8.5 A7.14 7.14 0 1 0 7.14 -8.5 ZM-0.68 2.38 A7.14 7.14 0 1 0 -14.96 2.38 A7.14 7.14 0 1 0 -0.68 2.38 ZM14.96 2.38 A7.14 7.14 0 1 0 0.68 2.38 A7.14 7.14 0 1 0 14.96 2.38 ZM-2.3800000000000003 1.7000000000000002 C-1.7000000000000002 9.350000000000001 -3.74 12.75 -6.800000000000001 16.15 L6.800000000000001 16.15 C3.74 12.75 1.7000000000000002 9.350000000000001 2.3800000000000003 1.7000000000000002 Z" transform="translate(0 0)" fill="#23262B" stroke="none"/></g><g transform="translate(73 205.36) rotate(180)"><path d="M7.14 -8.5 A7.14 7.14 0 1 0 -7.14 -8.5 A7.14 7.14 0 1 0 7.14 -8.5 ZM-0.68 2.38 A7.14 7.14 0 1 0 -14.96 2.38 A7.14 7.14 0 1 0 -0.68 2.38 ZM14.96 2.38 A7.14 7.14 0 1 0 0.68 2.38 A7.14 7.14 0 1 0 14.96 2.38 ZM-2.3800000000000003 1.7000000000000002 C-1.7000000000000002 9.350000000000001 -3.74 12.75 -6.800000000000001 16.15 L6.800000000000001 16.15 C3.74 12.75 1.7000000000000002 9.350000000000001 2.3800000000000003 1.7000000000000002 Z" transform="translate(0 0)" fill="#23262B" stroke="none"/></g><g transform="translate(177 205.36) rotate(180)"><path d="M7.14 -8.5 A7.14 7.14 0 1 0 -7.14 -8.5 A7.14 7.14 0 1 0 7.14 -8.5 ZM-0.68 2.38 A7.14 7.14 0 1 0 -14.96 2.38 A7.14 7.14 0 1 0 -0.68 2.38 ZM14.96 2.38 A7.14 7.14 0 1 0 0.68 2.38 A7.14 7.14 0 1 0 14.96 2.38 ZM-2.3800000000000003 1.7000000000000002 C-1.7000000000000002 9.350000000000001 -3.74 12.75 -6.800000000000001 16.15 L6.800000000000001 16.15 C3.74 12.75 1.7000000000000002 9.350000000000001 2.3800000000000003 1.7000000000000002 Z" transform="translate(0 0)" fill="#23262B" stroke="none"/></g><g transform="translate(73 267) rotate(180)"><path d="M7.14 -8.5 A7.14 7.14 0 1 0 -7.14 -8.5 A7.14 7.14 0 1 0 7.14 -8.5 ZM-0.68 2.38 A7.14 7.14 0 1 0 -14.96 2.38 A7.14 7.14 0 1 0 -0.68 2.38 ZM14.96 2.38 A7.14 7.14 0 1 0 0.68 2.38 A7.14 7.14 0 1 0 14.96 2.38 ZM-2.3800000000000003 1.7000000000000002 C-1.7000000000000002 9.350000000000001 -3.74 12.75 -6.800000000000001 16.15 L6.800000000000001 16.15 C3.74 12.75 1.7000000000000002 9.350000000000001 2.3800000000000003 1.7000000000000002 Z" transform="translate(0 0)" fill="#23262B" stroke="none"/></g><g transform="translate(177 267) rotate(180)"><path d="M7.14 -8.5 A7.14 7.14 0 1 0 -7.14 -8.5 A7.14 7.14 0 1 0 7.14 -8.5 ZM-0.68 2.38 A7.14 7.14 0 1 0 -14.96 2.38 A7.14 7.14 0 1 0 -0.68 2.38 ZM14.96 2.38 A7.14 7.14 0 1 0 0.68 2.38 A7.14 7.14 0 1 0 14.96 2.38 ZM-2.3800000000000003 1.7000000000000002 C-1.7000000000000002 9.350000000000001 -3.74 12.75 -6.800000000000001 16.15 L6.800000000000001 16.15 C3.74 12.75 1.7000000000000002 9.350000000000001 2.3800000000000003 1.7000000000000002 Z" transform="translate(0 0)" fill="#23262B" stroke="none"/></g>
  </svg>
